<svg xmlns="http://www.w3.org/2000/svg" viewBox="0 0 200 240" fill="none">
  <!-- Jain Ahimsa Hand with Dharmachakra -->
  <g fill="#C8A951">
    <path d="M60 95 C60 75, 65 65, 75 60 L75 35 C75 28, 82 22, 88 22 C94 22, 100 28, 100 35 L100 55 L100 25 C100 17, 107 11, 114 11 C121 11, 127 17, 127 25 L127 55 L127 30 C127 22, 134 16, 140 16 C147 16, 153 22, 153 30 L153 60 L153 42 C153 35, 159 29, 165 29 C171 29, 177 35, 177 42 L177 70 C177 75, 175 82, 172 90 L172 95 C180 85, 188 80, 192 85 C196 90, 190 100, 180 115 C170 130, 170 135, 170 145 L170 165 C170 190, 150 210, 125 215 L105 215 C80 210, 60 190, 60 165 Z" opacity="0.9"/>
  </g>
  <g transform="translate(115, 130)">
    <circle cx="0" cy="0" r="28" stroke="#E07C24" stroke-width="2.5" fill="none" opacity="0.9"/>
    <circle cx="0" cy="0" r="20" stroke="#E07C24" stroke-width="1.5" fill="none" opacity="0.6"/>
    <circle cx="0" cy="0" r="6" fill="#E07C24" opacity="0.8"/>
    <g stroke="#E07C24" stroke-width="1.2" opacity="0.7">
      <line x1="0" y1="-6" x2="0" y2="-28"/>
      <line x1="6" y1="0" x2="28" y2="0"/>
      <line x1="0" y1="6" x2="0" y2="28"/>
      <line x1="-6" y1="0" x2="-28" y2="0"/>
      <line x1="4.2" y1="-4.2" x2="19.8" y2="-19.8"/>
      <line x1="4.2" y1="4.2" x2="19.8" y2="19.8"/>
      <line x1="-4.2" y1="4.2" x2="-19.8" y2="19.8"/>
      <line x1="-4.2" y1="-4.2" x2="-19.8" y2="-19.8"/>
      <line x1="2.3" y1="-5.5" x2="10.8" y2="-25.8"/>
      <line x1="5.5" y1="-2.3" x2="25.8" y2="-10.8"/>
      <line x1="5.5" y1="2.3" x2="25.8" y2="10.8"/>
      <line x1="2.3" y1="5.5" x2="10.8" y2="25.8"/>
      <line x1="-2.3" y1="5.5" x2="-10.8" y2="25.8"/>
      <line x1="-5.5" y1="2.3" x2="-25.8" y2="10.8"/>
      <line x1="-5.5" y1="-2.3" x2="-25.8" y2="-10.8"/>
      <line x1="-2.3" y1="-5.5" x2="-10.8" y2="-25.8"/>
      <line x1="1.2" y1="-5.9" x2="5.5" y2="-27.5"/>
      <line x1="5.9" y1="-1.2" x2="27.5" y2="-5.5"/>
      <line x1="5.9" y1="1.2" x2="27.5" y2="5.5"/>
      <line x1="1.2" y1="5.9" x2="5.5" y2="27.5"/>
      <line x1="-1.2" y1="5.9" x2="-5.5" y2="27.5"/>
      <line x1="-5.9" y1="1.2" x2="-27.5" y2="5.5"/>
      <line x1="-5.9" y1="-1.2" x2="-27.5" y2="-5.5"/>
      <line x1="-1.2" y1="-5.9" x2="-5.5" y2="-27.5"/>
    </g>
  </g>
</svg>
